<?xml version="1.0" encoding="UTF-8" standalone="no"?>
<svg
   xmlns:dc="http://purl.org/dc/elements/1.1/"
   xmlns:cc="http://creativecommons.org/ns#"
   xmlns:rdf="http://www.w3.org/1999/02/22-rdf-syntax-ns#"
   xmlns:svg="http://www.w3.org/2000/svg"
   xmlns="http://www.w3.org/2000/svg"
   xmlns:sodipodi="http://sodipodi.sourceforge.net/DTD/sodipodi-0.dtd"
   xmlns:inkscape="http://www.inkscape.org/namespaces/inkscape"
   width="632.28699"
   height="928.19324"
   viewBox="0 0 505.82959 742.55459"
   version="1.1"
   id="svg3079"
   inkscape:version="0.48.4 r9939"
   sodipodi:docname="placeholder_person.svg">
  <metadata
     id="metadata3117">
    <rdf:RDF>
      <cc:Work
         rdf:about="">
        <dc:format>image/svg+xml</dc:format>
        <dc:type
           rdf:resource="http://purl.org/dc/dcmitype/StillImage" />
        <dc:title></dc:title>
      </cc:Work>
    </rdf:RDF>
  </metadata>
  <defs
     id="defs3115" />
  <sodipodi:namedview
     pagecolor="#ffffff"
     bordercolor="#666666"
     borderopacity="1"
     objecttolerance="10"
     gridtolerance="10"
     guidetolerance="10"
     inkscape:pageopacity="0"
     inkscape:pageshadow="2"
     inkscape:window-width="1481"
     inkscape:window-height="996"
     id="namedview3113"
     showgrid="false"
     fit-margin-top="0"
     fit-margin-left="0"
     fit-margin-right="0"
     fit-margin-bottom="0"
     inkscape:zoom="0.43762846"
     inkscape:cx="105.26784"
     inkscape:cy="495.72703"
     inkscape:window-x="0"
     inkscape:window-y="0"
     inkscape:window-maximized="0"
     inkscape:current-layer="svg3079" />
  <path
     style="fill:#000000;stroke:none;fill-opacity:1;opacity:1"
     d="m 273.3,0.00458851 c -1.81078,-0.06562 -3.6275,0.5875 -5.375,0.99999999 1.31,6.21 4.565,11.7600005 6.775,17.6500005 2.22,6.74 5.58,13.08 7.1,20.05 3.6,16.16 8.37,32 11.85,48.2 2.01,7.529999 3.44,15.250001 3.85,23.050001 -21.56,-4.79 -42.545,-12.380002 -64.625,-14.600002 -8.85,-1.62 -17.945,-2.11 -26.875,-0.85 -5.51,0.72 -11.11,-0.255 -16.6,0.625 -4.97,0.97 -10.01,2.015 -14.6,4.225 -3.96,1.900002 -8.34,2.775002 -12.2,4.875002 -7.17,4.24 -14.875,7.535 -21.875,12.075 -8.44,6.83 -16.575,14.175 -23.275,22.775 -6.36,7.52 -11.295,16.57 -12.975,26.35 -2.3,-1.22 -4.605,-2.41 -6.975,-3.45 -2.39,-1.22 -4.79,-2.38 -7.2,-3.55 -6.64,-4.66 -14.55,-6.955 -21.65,-10.775 -6.78,-2.99 -12.565,-8.335 -20.125,-9.375 0.14,3.03 0.61,6.06 1.6,8.95 1.3,4.93 2.81,9.805 4.15,14.725 1.84,5.41 3.73,10.82 5.2,16.35 1.27,4.75 3.47,9.255 4.1,14.175 l -0.525,0.925 c -5.27,2.75 -10.66,5.4 -16.35,7.2 -8.32,4.76 -17.515,7.75 -25.625,12.9 -4.92,2.27 -9.395,5.48 -12.425,10.05 4.91,3.5 10.87,4.705 16.3,7.125 15.41,4.21 28.4,13.815 42.3,21.275 -6.49,11.9 -11.83,24.41 -16.25,37.2 -1.5,5.64 -3.04,11.265 -4.25,16.975 l -0.5,0.875 c -2.61,10.61 -2.375,21.7 -1.225,32.5 0.28,10.57 4.295,20.535 7.525,30.475 2.67,9.03 7.895,17.04 13.825,24.25 5.3,5.59 11.02,10.78 16.95,15.7 7.01,5.13 14.735,9.12 22.525,12.9 7.37,4.26 15.885,5.74 23.625,9.15 3.01,1.43 6.495,1.75 9.375,3.45 1.85,4.47 3.07,9.3 6.25,13.1 3.56,6.13 7.61,12.19 13.7,16.1 0.41,0.16 1.215,0.475 1.625,0.625 2.26,1.81 4.86,3.175 7.7,3.825 5.2,1.3 10.395,2.93 15.825,2.9 3.69,4.28 4.17,10.13 6.65,15.05 2.77,5.53 4.595,11.455 6.325,17.375 2.15,7.43 1.96,15.26 3.25,22.85 1.47,8.07 -0.205,16.18 -0.775,24.25 -2.31,0.26 -4.815,0.3 -6.725,1.8 -5.13,3.48 -10.635,6.54 -14.825,11.2 -8.53,6.96 -14.8,16.405 -19,26.525 -2.1,4.89 -4.89,9.465 -6.6,14.525 -1.67965,4.65798 -2.43862,9.64125 -4.375,14.2 -5.14257,2.79273 -10.23716,5.70469 -15.125,8.925 -5.41933,2.71141 -10.68785,5.67278 -15.45,9.475 -6.03,4.96 -12.985,8.585 -19.425,12.975 -8.24,4.19 -14.84,10.79 -21.5,17.05 -3.39,2.84 -6.785,5.675 -10.125,8.575 -4.13,3.09 -7.305,7.23 -11.375,10.4 -4.6,3.53 -8.105,8.26 -12.725,11.75 -4.38,3.45 -7.805,7.92 -12.125,11.45 -5.23,4.16 -9.63,9.24 -14.45,13.85 -5.52,5.83 -9.935,12.62 -15.575,18.35 l 7.2,0 135.8,0 94.775,0 129.425,0 4.125,0 59,0 2.4,0 0.525,0 28.15,0 1.825,0 2.125,0 c -1.92,-5.44 -3.78,-10.925 -6.4,-16.075 -3.03,-5.97 -5.52,-12.24 -9.2,-17.85 -0.14,-0.42 -0.435,-1.255 -0.575,-1.675 -6,-8.82 -9.815,-19.665 -19.125,-25.725 -5.38,-4.08 -12.055,-7.035 -15.625,-13.025 -3.17,-14.1 -9.28,-27.36 -16.35,-39.9 -2.61,-3.71 -5.505,-7.215 -7.675,-11.225 -3.82,-6.65 -10.175,-11.165 -15.075,-16.925 0.93,-0.98 1.865,-1.965 2.825,-2.925 0.07,-0.5 0.22,-1.515 0.3,-2.025 3.46,-3.86 6.5,-8.185 10.65,-11.375 8.15,-7.27 16.035,-14.865 24.975,-21.175 4.9,-4.05 10.935,-7.255 14.125,-12.975 2.29,-4.15 0.585,-8.885 -1.375,-12.775 11.36,-0.17 22.785,0.685 34.075,-0.775 5.34,0.07 10.64,-0.33 15.85,-1.55 8.04,-1.31 16.125,-3.54 22.875,-8.25 7.91,-4.95 8.18,-17.825 1.25,-23.725 -6.7,-6.63 -13.555,-13.165 -19.125,-20.775 -5.18,-5.23 -9.25,-11.39 -13.35,-17.45 -3.19,-6.61 -6.34,-13.42 -7.6,-20.7 1.96,-3.06 6.335,-3.78 7.775,-7.3 2.34,-5.27 4.455,-11.135 3.475,-16.975 -1.56,-6.59 -3.41,-13.775 -9.15,-18.025 -4.05,-4.23 -10.03,-4.265 -15.4,-5.075 8.17,-9.76 15.795,-20.975 17.325,-33.925 1.53,-12 2.695,-24.665 -1.725,-36.225 -3.29,-11.52 -13.4,-19.31 -23.2,-25.25 -0.84,-4.7 -0.465,-9.69 -2.275,-14.15 -4.1,-5.55 -10.19,-9.105 -14.8,-14.175 -6.28,-6.21 -9.675,-15.105 -8.575,-23.925 6.14,-0.49 13.075,1.59 18.475,-2.3 5.6,-3.51 11.885,-6.895 15.075,-12.975 3.45,-6.17 7.185,-12.315 8.975,-19.225 0.93,-3.42 1.79,-6.835 3,-10.175 1.86,-7.75 1.555,-15.815 3.375,-23.575 1.15,-6.32 -0.7,-12.62 -0.65,-18.95 -0.27,-8.79 -2.98,-17.195 -5.4,-25.575 -3.29,-13.83 -10.95,-25.975 -17,-38.675002 -8.61,-15.089999 -20.945,-27.539999 -32.125,-40.699999 -10.8,-11.63 -23.945,-20.715 -35.775,-31.225 -5.58,-4.31 -10.535,-9.35 -16.225,-13.5 -0.63,0.4 -1.87,1.2 -2.5,1.6 2.55,9.66 7.045,18.615 10.325,28.025 5.89,12.69 8.835,26.42 12.275,39.9 2.45,11.129999 4.985,22.440001 4.675,33.900001 -0.4,-0.12 -1.225,-0.355 -1.625,-0.475 -2.53,-5.34 -7.375,-9.115 -9.925,-14.425 -3.96,-7.900002 -10.305,-14.200001 -15.375,-21.350001 -6.39,-9.23 -13.335,-18.07 -20.875,-26.4 -3.35,-3.38 -5.67,-7.615 -9.1,-10.925 -4.68,-4.35 -8.41,-9.585 -13.05,-13.975 -4.63,-5.6 -8.865,-11.72 -14.825,-16 C 289.255,7.4945885 282.75,2.6645885 275.1,0.35458851 c -0.6,-0.2225 -1.19641,-0.328125 -1.8,-0.35 z M 186.475,562.42959 c -0.61192,0.50136 -1.22764,0.98765 -1.825,1.5 0.58929,-0.52021 1.2099,-1.01142 1.825,-1.5 z"
     id="path3083"
     inkscape:connector-curvature="0" />
</svg>
